<svg width="1200" height="600" viewBox="0 0 1200 600" fill="none" xmlns="http://www.w3.org/2000/svg">
  <rect width="1200" height="600" fill="#F5F5F5"/>

  <rect x="0" y="0" width="1200" height="600" fill="#F0F4F8"/>
  <circle cx="200" cy="500" r="150" fill="#E7473C" fill-opacity="0.1"/>
  <circle cx="1000" cy="100" r="120" fill="#178582" fill-opacity="0.1"/>

  <path d="M600 200C627.614 200 650 177.614 650 150C650 122.386 627.614 100 600 100C572.386 100 550 122.386 550 150C550 177.614 572.386 200 600 200Z" fill="#333333"/>
  <path d="M550 220V350C550 361.046 558.954 370 570 370H630C641.046 370 650 361.046 650 350V220H550Z" fill="#333333"/>
  <path d="M650 250H700V400H650V250Z" fill="#333333"/>
  <path d="M550 250H500V400H550V250Z" fill="#333333"/>
  <path d="M570 400V500H630V400H570Z" fill="#333333"/>
  <path d="M700 400V480H750V400H700Z" fill="#333333"/>
  <path d="M500 400V480H450V400H500Z" fill="#333333"/>

  <circle cx="600" cy="150" r="60" stroke="#E7473C" stroke-width="3" stroke-dasharray="10 5"/>
  <line x1="500" y1="300" x2="700" y2="300" stroke="#178582" stroke-width="3"/>
  <line x1="550" y1="250" x2="650" y2="250" stroke="#178582" stroke-width="3"/>
  <line x1="570" y1="450" x2="630" y2="450" stroke="#178582" stroke-width="3"/>

  <circle cx="600" cy="150" r="5" fill="#E7473C"/>
  <circle cx="550" cy="250" r="5" fill="#E7473C"/>
  <circle cx="650" cy="250" r="5" fill="#E7473C"/>
  <circle cx="500" cy="300" r="5" fill="#E7473C"/>
  <circle cx="700" cy="300" r="5" fill="#E7473C"/>
  <circle cx="570" cy="450" r="5" fill="#E7473C"/>
  <circle cx="630" cy="450" r="5" fill="#E7473C"/>

  <rect x="800" y="150" width="300" height="40" rx="5" fill="#E7473C"/>
  <rect x="800" y="210" width="250" height="20" rx="5" fill="#666666"/>
  <rect x="800" y="250" width="200" height="20" rx="5" fill="#666666"/>
  <rect x="800" y="290" width="280" height="20" rx="5" fill="#666666"/>

  <rect x="800" y="350" width="150" height="50" rx="25" fill="#E7473C"/>
  <rect x="970" y="350" width="150" height="50" rx="25" stroke="#178582" stroke-width="3" fill="none"/>
</svg>