<svg width="600" height="400" viewBox="0 0 600 400" fill="none" xmlns="http://www.w3.org/2000/svg">
  <rect width="600" height="400" fill="#F5F5F5"/>

  <rect x="0" y="0" width="600" height="400" fill="#F0F4F8"/>

  <path d="M300 100C316.569 100 330 86.5685 330 70C330 53.4315 316.569 40 300 40C283.431 40 270 53.4315 270 70C270 86.5685 283.431 100 300 100Z" fill="#333333"/>

  <path d="M270 120V150H330V120H270Z" fill="#333333"/>
  <path d="M300 150L250 250L270 260L300 200L330 260L350 250L300 150Z" fill="#333333"/>
  <path d="M250 250V300H270V250H250Z" fill="#333333"/>
  <path d="M330 250V300H350V250H330Z" fill="#333333"/>

  <line x1="300" y1="70" x2="300" y2="200" stroke="#E7473C" stroke-width="2" stroke-dasharray="5 3"/>
  <line x1="250" y1="250" x2="350" y2="250" stroke="#E7473C" stroke-width="2" stroke-dasharray="5 3"/>
  <path d="M300 70L350 120" stroke="#178582" stroke-width="2" stroke-dasharray="5 3"/>
  <path d="M300 70L250 120" stroke="#178582" stroke-width="2" stroke-dasharray="5 3"/>

  <path d="M300 200C300 200 290 190 280 200" stroke="#E7473C" stroke-width="2"/>
  <path d="M300 200C300 200 310 190 320 200" stroke="#E7473C" stroke-width="2"/>

  <circle cx="300" cy="70" r="4" fill="#E7473C"/>
  <circle cx="300" cy="150" r="4" fill="#E7473C"/>
  <circle cx="300" cy="200" r="4" fill="#E7473C"/>
  <circle cx="250" cy="250" r="4" fill="#E7473C"/>
  <circle cx="350" cy="250" r="4" fill="#E7473C"/>

  <rect x="380" y="60" width="180" height="30" rx="5" fill="#E7473C"/>
  <rect x="380" y="100" width="150" height="15" rx="5" fill="#666666"/>
  <rect x="380" y="125" width="120" height="15" rx="5" fill="#666666"/>

  <rect x="380" y="160" width="180" height="40" rx="5" fill="#F0F0F0" stroke="#E7473C" stroke-width="2"/>
  <rect x="390" y="170" width="100" height="20" rx="3" fill="#E7473C" fill-opacity="0.3"/>

  <rect x="380" y="220" width="180" height="20" rx="10" fill="#F0F0F0" stroke="#666666" stroke-width="1"/>
  <rect x="380" y="220" width="120" height="20" rx="10" fill="#178582"/>
</svg>