<svg width="600" height="400" viewBox="0 0 600 400" fill="none" xmlns="http://www.w3.org/2000/svg">
  <rect width="600" height="400" fill="#F5F5F5"/>

  <rect x="0" y="0" width="600" height="400" fill="#F0F4F8"/>

  <rect x="30" y="30" width="260" height="340" rx="10" fill="white" stroke="#DDDDDD" stroke-width="2"/>
  <rect x="310" y="30" width="260" height="340" rx="10" fill="white" stroke="#DDDDDD" stroke-width="2"/>

  <rect x="30" y="30" width="260" height="50" rx="10" fill="#4CAF50"/>

  <rect x="50" y="100" width="220" height="60" rx="5" fill="#F9F9F9" stroke="#EEEEEE"/>
  <circle cx="80" cy="130" r="20" fill="#4CAF50" fill-opacity="0.2"/>

  <rect x="50" y="170" width="220" height="60" rx="5" fill="#F9F9F9" stroke="#EEEEEE"/>
  <circle cx="80" cy="200" r="20" fill="#E7473C" fill-opacity="0.2"/>

  <rect x="50" y="240" width="220" height="60" rx="5" fill="#F9F9F9" stroke="#EEEEEE"/>
  <circle cx="80" cy="270" r="20" fill="#178582" fill-opacity="0.2"/>

  <rect x="50" y="310" width="70" height="40" rx="5" fill="#F0F0F0"/>

  <rect x="130" y="310" width="70" height="40" rx="5" fill="#F0F0F0"/>

  <rect x="210" y="310" width="70" height="40" rx="5" fill="#F0F0F0"/>

  <rect x="310" y="30" width="260" height="50" rx="10" fill="#E7473C"/>

  <rect x="330" y="100" width="220" height="40" rx="5" fill="#F9F9F9" stroke="#EEEEEE"/>
  <circle cx="350" cy="120" r="10" fill="#E7473C"/>

  <rect x="330" y="150" width="220" height="40" rx="5" fill="#F9F9F9" stroke="#EEEEEE"/>
  <circle cx="350" cy="170" r="10" fill="#E7473C"/>

  <rect x="330" y="200" width="220" height="40" rx="5" fill="#F9F9F9" stroke="#EEEEEE"/>
  <circle cx="350" cy="220" r="10" fill="#E7473C"/>

  <rect x="330" y="250" width="220" height="40" rx="5" fill="#F9F9F9" stroke="#EEEEEE"/>
  <circle cx="350" cy="270" r="10" fill="#E7473C"/>

  <rect x="330" y="310" width="220" height="20" rx="10" fill="#F0F0F0"/>
  <rect x="330" y="310" width="110" height="20" rx="10" fill="#E7473C"/>

  <rect x="330" y="340" width="220" height="30" rx="15" fill="#178582"/>
</svg>